<svg xmlns="http://www.w3.org/2000/svg" viewBox="0 0 1600 900" fill="none">
<defs>
  <linearGradient id="bg" x1="180" y1="60" x2="1430" y2="810" gradientUnits="userSpaceOnUse"><stop stop-color="#052348"/><stop offset=".55" stop-color="#075680"/><stop offset="1" stop-color="#0D778D"/></linearGradient>
  <linearGradient id="sea" x1="800" y1="610" x2="800" y2="900" gradientUnits="userSpaceOnUse"><stop stop-color="#0C5D79"/><stop offset="1" stop-color="#052A4C"/></linearGradient>
  <filter id="blur"><feGaussianBlur stdDeviation="18"/></filter>
</defs>
<rect width="1600" height="900" fill="url(#bg)"/>
<circle cx="1320" cy="220" r="250" fill="#13A5B0" fill-opacity=".13" filter="url(#blur)"/>
<path d="M0 635C285 590 488 676 735 632C970 590 1220 540 1600 618V900H0V635Z" fill="url(#sea)"/>
<g opacity=".55" stroke="#9DD7E1" stroke-width="2">
<path d="M1080 160V600M1140 235V600M1205 110V600M1264 280V600M1330 175V600"/>
<path d="M1042 600H1375M1063 519H1355M1091 445H1326"/>
<rect x="1025" y="520" width="90" height="80" rx="6"/><rect x="1132" y="470" width="110" height="130" rx="6"/><rect x="1260" y="505" width="105" height="95" rx="6"/>
<circle cx="1080" cy="158" r="20"/><circle cx="1205" cy="108" r="24"/><circle cx="1330" cy="173" r="18"/>
</g>
<g transform="translate(275 475)">
  <path d="M0 115H592L520 218H103L0 165V115Z" fill="#DCE7EC" fill-opacity=".9"/>
  <path d="M84 54H410L496 115H32L84 54Z" fill="#EEF5F6" fill-opacity=".92"/>
  <rect x="210" y="0" width="20" height="57" fill="#DDE9EB"/><rect x="233" y="14" width="85" height="40" rx="3" fill="#EAF2F4"/>
  <ellipse cx="170" cy="88" rx="82" ry="57" fill="#E7F0F2"/><ellipse cx="170" cy="88" rx="64" ry="43" stroke="#7FC5D0" stroke-width="3"/>
  <rect x="377" y="65" width="62" height="50" rx="5" fill="#D7E7EA"/>
</g>
<g opacity=".2" stroke="#CBEEF2">
  <circle cx="1360" cy="240" r="160"/><circle cx="1360" cy="240" r="100"/><path d="M1200 240H1520M1360 80V400"/>
</g>
</svg>
